<svg width="75" height="75" viewBox="0 0 75 75" fill="none" xmlns="http://www.w3.org/2000/svg">
<path d="M37.5 7.03125C20.6733 7.03125 7.03125 20.6733 7.03125 37.5C7.03125 54.3267 20.6733 67.9688 37.5 67.9688C54.3267 67.9688 67.9688 54.3267 67.9688 37.5C67.9688 20.6733 54.3267 7.03125 37.5 7.03125ZM42.6724 49.9058C42.8992 50.1212 43.0805 50.3799 43.2058 50.6666C43.331 50.9533 43.3976 51.2621 43.4016 51.5749C43.4056 51.8877 43.347 52.1982 43.2291 52.488C43.1112 52.7777 42.9365 53.041 42.7153 53.2622C42.4941 53.4834 42.2309 53.6581 41.9411 53.776C41.6513 53.8938 41.3409 53.9525 41.028 53.9485C40.7152 53.9445 40.4064 53.8779 40.1197 53.7526C39.8331 53.6274 39.5744 53.446 39.3589 53.2192L25.2964 39.1567C24.8572 38.7172 24.6105 38.1213 24.6105 37.5C24.6105 36.8787 24.8572 36.2828 25.2964 35.8433L39.3589 21.7808C39.802 21.3598 40.392 21.1285 41.0032 21.1364C41.6144 21.1442 42.1983 21.3905 42.6305 21.8226C43.0627 22.2548 43.3089 22.8388 43.3168 23.4499C43.3246 24.0611 43.0933 24.6511 42.6724 25.0942L30.2681 37.5L42.6724 49.9058Z" fill="black"/>
</svg>
